<svg class="main-svg" xmlns="http://www.w3.org/2000/svg" xmlns:xlink="http://www.w3.org/1999/xlink" width="506" height="358" style="" viewBox="0 0 506 358"><rect x="0" y="0" width="506" height="358" style="fill: rgb(0, 0, 0); fill-opacity: 0;"/><defs id="defs-39d433"><g class="clips"><clipPath id="clip39d433xyplot" class="plotclip"><rect width="328" height="358"/></clipPath><clipPath class="axesclip" id="clip39d433x"><rect x="89" y="0" width="328" height="358"/></clipPath><clipPath class="axesclip" id="clip39d433y"><rect x="0" y="0" width="506" height="358"/></clipPath><clipPath class="axesclip" id="clip39d433xy"><rect x="89" y="0" width="328" height="358"/></clipPath></g><g class="gradients"/><g class="patterns"/></defs><g class="bglayer"><rect class="bg" x="89" y="0" width="328" height="358" style="fill: rgb(0, 0, 0); fill-opacity: 0; stroke-width: 0;"/></g><g class="layer-below"><g class="imagelayer"/><g class="shapelayer"/></g><g class="cartesianlayer"><g class="subplot xy"><g class="layer-subplot"><g class="shapelayer"/><g class="imagelayer"/></g><g class="gridlayer"><g class="x"/><g class="y"/></g><g class="zerolinelayer"/><path class="xlines-below"/><path class="ylines-below"/><g class="overlines-below"/><g class="xaxislayer-below"/><g class="yaxislayer-below"/><g class="overaxes-below"/><g class="plot" transform="translate(89,0)" clip-path="url(#clip39d433xyplot)"><g class="scatterlayer mlayer"><g class="trace scatter tracee63ad1" style="stroke-miterlimit: 2; opacity: 1;"><g class="fills"/><g class="errorbars"/><g class="lines"><path class="js-line" d="M286.6,315.1L41.4,179L164,42.9" style="vector-effect: non-scaling-stroke; fill: none; stroke: rgb(163, 65, 0); stroke-opacity: 1; stroke-width: 10px; opacity: 1;"/></g><g class="points"><path class="point" transform="translate(286.6,315.1)" d="M20,0A20,20 0 1,1 0,-20A20,20 0 0,1 20,0Z" style="opacity: 1; stroke-width: 0px; fill: rgb(163, 65, 0); fill-opacity: 1;"/><path class="point" transform="translate(41.4,179)" d="M20,0A20,20 0 1,1 0,-20A20,20 0 0,1 20,0Z" style="opacity: 1; stroke-width: 0px; fill: rgb(163, 65, 0); fill-opacity: 1;"/><path class="point" transform="translate(164,42.9)" d="M20,0A20,20 0 1,1 0,-20A20,20 0 0,1 20,0Z" style="opacity: 1; stroke-width: 0px; fill: rgb(163, 65, 0); fill-opacity: 1;"/></g><g class="text"/></g></g></g><g class="overplot"/><path class="xlines-above crisp" d="M0,0" style="fill: none;"/><path class="ylines-above crisp" d="M0,0" style="fill: none;"/><g class="overlines-above"/><g class="xaxislayer-above"/><g class="yaxislayer-above"/><g class="overaxes-above"/></g></g><g class="polarlayer"/><g class="smithlayer"/><g class="ternarylayer"/><g class="geolayer"/><g class="funnelarealayer"/><g class="pielayer"/><g class="iciclelayer"/><g class="treemaplayer"/><g class="sunburstlayer"/><g class="glimages"/><defs id="topdefs-39d433"><g class="clips"/></defs><g class="layer-above"><g class="imagelayer"/><g class="shapelayer"/></g><g class="infolayer"><g class="g-gtitle"/><g class="g-xtitle"/><g class="g-ytitle"/></g></svg>