<svg class="main-svg" xmlns="http://www.w3.org/2000/svg" xmlns:xlink="http://www.w3.org/1999/xlink" width="500" height="300" style="" viewBox="0 0 500 300"><rect x="0" y="0" width="500" height="300" style="fill: rgb(255, 255, 255); fill-opacity: 1;"/><defs id="defs-1b412d"><g class="clips"><clipPath id="clip1b412dxyplot" class="plotclip"><rect width="249" height="193"/></clipPath><clipPath class="axesclip" id="clip1b412dx"><rect x="60" y="0" width="249" height="300"/></clipPath><clipPath class="axesclip" id="clip1b412dy"><rect x="0" y="30" width="500" height="193"/></clipPath><clipPath class="axesclip" id="clip1b412dxy"><rect x="60" y="30" width="249" height="193"/></clipPath></g><g class="gradients"/><g class="patterns"/></defs><g class="bglayer"/><g class="layer-below"><g class="imagelayer"/><g class="shapelayer"/></g><g class="cartesianlayer"><g class="subplot xy"><g class="layer-subplot"><g class="shapelayer"/><g class="imagelayer"/></g><g class="minor-gridlayer"><g class="x"/><g class="y"/></g><g class="gridlayer"><g class="x"/><g class="y"/></g><g class="zerolinelayer"/><path class="xlines-below"/><path class="ylines-below"/><g class="overlines-below"/><g class="xaxislayer-below"/><g class="yaxislayer-below"/><g class="overaxes-below"/><g class="plot" transform="translate(60,30)" clip-path="url(#clip1b412dxyplot)"><g class="scatterlayer mlayer"><g class="trace scatter trace035167" style="stroke-miterlimit: 2; opacity: 1;"><g class="fills"/><g class="errorbars"/><g class="lines"><path class="js-line" d="M0,152.79L2.37,152.79L2.45,146.68L5.67,146.68L5.74,140.57L6.38,140.57L6.7,134.46L8,134.46L9.3,128.35L9.69,128.35L9.69,122.23L16.25,122.23L17.62,116.12L17.9,116.12L18.17,110.01L24.41,110.01L26.38,103.9L32.1,103.9L33.04,97.79L36.09,97.79L39.14,91.68L39.66,91.68L40.17,85.56L49.73,85.56L50.32,79.45L60.38,79.45L64.28,73.34L64.43,67.23L68.06,67.23L85.08,67.23L90.86,61.12L92.63,61.12L93,55.01L106.58,55.01L112.52,48.89L114.06,48.89L115.61,42.78L120.34,42.78L125.07,36.67L152.67,36.67L180.27,30.56L185.82,30.56L191.37,24.45L197.3,24.45L199.9,18.33L207.17,18.33L214.44,12.22L249,12.22" style="vector-effect: none; fill: none; stroke: rgb(99, 110, 250); stroke-opacity: 1; stroke-width: 2px; opacity: 1;"/></g><g class="points"/><g class="text"/></g><g class="trace scatter trace29c418" style="stroke-miterlimit: 2; opacity: 1;"><g class="fills"/><g class="errorbars"/><g class="lines"><path class="js-line" d="M0,183.35L1.14,183.35L2.28,177.24L2.46,177.24L2.48,171.13L3.12,171.13L3.76,165.02L4.68,165.02L5.59,158.9L5.9,158.9L6.06,140.57L9.49,140.57L9.68,134.46L9.87,128.35L10.99,128.35L12.12,116.12L13.49,116.12L14.87,103.9L16.25,103.9L20.31,103.9L22.45,97.79L26.82,97.79L27.26,91.68L28.36,91.68L29.47,85.56L30.31,85.56L31.15,79.45L42.8,79.45L45.43,73.34L47.29,73.34L49.14,67.23L51.65,67.23L52.98,61.12L54.57,61.12L56.17,55.01L56.48,48.89L60.38,48.89L68.06,48.89L71.69,42.78L75.49,42.78L79.3,36.67L91.56,36.67L92.26,30.56L96.83,30.56L100.65,24.45L193.04,24.45L194.71,18.33L223.19,18.33L231.95,12.22L249,12.22" style="vector-effect: none; fill: none; stroke: rgb(239, 85, 59); stroke-opacity: 1; stroke-width: 2px; opacity: 1;"/></g><g class="points"/><g class="text"/></g><g class="trace scatter traced03602" style="stroke-miterlimit: 2; opacity: 1;"><g class="fills"/><g class="errorbars"/><g class="lines"><path class="js-line" d="M0,183.35L1.14,183.35L2.28,177.24L2.46,177.24L2.48,171.13L3.12,171.13L3.76,165.02L4.68,165.02L5.59,158.9L5.9,158.9L6.06,140.57L9.49,140.57L9.68,134.46L9.87,128.35L10.99,128.35L12.12,116.12L13.49,116.12L14.87,103.9L16.25,103.9L20.31,103.9L22.45,97.79L26.82,97.79L27.26,91.68L28.36,91.68L29.47,85.56L30.31,85.56L31.15,79.45L42.8,79.45L45.43,73.34L47.29,73.34L49.14,67.23L51.65,67.23L52.98,61.12L54.57,61.12L56.17,55.01L56.48,48.89L60.38,48.89L68.06,48.89L71.69,42.78L75.49,42.78L79.3,36.67L91.56,36.67L92.26,30.56L96.83,30.56L100.65,24.45L193.04,24.45L194.71,18.33L223.19,18.33L231.95,12.22L249,12.22" style="vector-effect: none; fill: none; stroke: rgb(0, 204, 150); stroke-opacity: 1; stroke-width: 2px; opacity: 1;"/></g><g class="points"/><g class="text"/></g></g></g><g class="overplot"/><path class="xlines-above crisp" d="M59,223.5H309" style="fill: none; stroke-width: 1px; stroke: rgb(36, 36, 36); stroke-opacity: 1;"/><path class="ylines-above crisp" d="M59.5,30V223" style="fill: none; stroke-width: 1px; stroke: rgb(36, 36, 36); stroke-opacity: 1;"/><g class="overlines-above"/><g class="xaxislayer-above"><path class="xtick ticks crisp" d="M0,224v5" transform="translate(60,0)" style="stroke: rgb(68, 68, 68); stroke-opacity: 1; stroke-width: 1px;"/><path class="xtick ticks crisp" d="M0,224v5" transform="translate(114.52000000000001,0)" style="stroke: rgb(68, 68, 68); stroke-opacity: 1; stroke-width: 1px;"/><path class="xtick ticks crisp" d="M0,224v5" transform="translate(169.04000000000002,0)" style="stroke: rgb(68, 68, 68); stroke-opacity: 1; stroke-width: 1px;"/><path class="xtick ticks crisp" d="M0,224v5" transform="translate(223.55,0)" style="stroke: rgb(68, 68, 68); stroke-opacity: 1; stroke-width: 1px;"/><path class="xtick ticks crisp" d="M0,224v5" transform="translate(278.07,0)" style="stroke: rgb(68, 68, 68); stroke-opacity: 1; stroke-width: 1px;"/><g class="xtick"><text text-anchor="middle" x="0" y="243.4" transform="translate(60,0)" style="font-family: 'Open Sans', verdana, arial, sans-serif; font-size: 12px; fill: rgb(36, 36, 36); fill-opacity: 1; white-space: pre; opacity: 1;">1</text></g><g class="xtick"><text text-anchor="middle" x="0" y="243.4" style="font-family: 'Open Sans', verdana, arial, sans-serif; font-size: 12px; fill: rgb(36, 36, 36); fill-opacity: 1; white-space: pre; opacity: 1;" transform="translate(114.52000000000001,0)">1.5</text></g><g class="xtick"><text text-anchor="middle" x="0" y="243.4" style="font-family: 'Open Sans', verdana, arial, sans-serif; font-size: 12px; fill: rgb(36, 36, 36); fill-opacity: 1; white-space: pre; opacity: 1;" transform="translate(169.04000000000002,0)">2</text></g><g class="xtick"><text text-anchor="middle" x="0" y="243.4" style="font-family: 'Open Sans', verdana, arial, sans-serif; font-size: 12px; fill: rgb(36, 36, 36); fill-opacity: 1; white-space: pre; opacity: 1;" transform="translate(223.55,0)">2.5</text></g><g class="xtick"><text text-anchor="middle" x="0" y="243.4" style="font-family: 'Open Sans', verdana, arial, sans-serif; font-size: 12px; fill: rgb(36, 36, 36); fill-opacity: 1; white-space: pre; opacity: 1;" transform="translate(278.07,0)">3</text></g></g><g class="yaxislayer-above"><path class="ytick ticks crisp" d="M59,0h-5" transform="translate(0,159.57)" style="stroke: rgb(68, 68, 68); stroke-opacity: 1; stroke-width: 1px;"/><path class="ytick ticks crisp" d="M59,0h-5" transform="translate(0,94.78)" style="stroke: rgb(68, 68, 68); stroke-opacity: 1; stroke-width: 1px;"/><path class="ytick ticks crisp" d="M59,0h-5" transform="translate(0,30)" style="stroke: rgb(68, 68, 68); stroke-opacity: 1; stroke-width: 1px;"/><g class="ytick"><text text-anchor="end" x="51.6" y="4.199999999999999" transform="translate(0,159.57)" style="font-family: 'Open Sans', verdana, arial, sans-serif; font-size: 12px; fill: rgb(36, 36, 36); fill-opacity: 1; white-space: pre; opacity: 1;">0.6</text></g><g class="ytick"><text text-anchor="end" x="51.6" y="4.199999999999999" style="font-family: 'Open Sans', verdana, arial, sans-serif; font-size: 12px; fill: rgb(36, 36, 36); fill-opacity: 1; white-space: pre; opacity: 1;" transform="translate(0,94.78)">0.8</text></g><g class="ytick"><text text-anchor="end" x="51.6" y="4.199999999999999" style="font-family: 'Open Sans', verdana, arial, sans-serif; font-size: 12px; fill: rgb(36, 36, 36); fill-opacity: 1; white-space: pre; opacity: 1;" transform="translate(0,30)">1</text></g></g><g class="overaxes-above"/></g></g><g class="polarlayer"/><g class="smithlayer"/><g class="ternarylayer"/><g class="geolayer"/><g class="funnelarealayer"/><g class="pielayer"/><g class="iciclelayer"/><g class="treemaplayer"/><g class="sunburstlayer"/><g class="glimages"/><defs id="topdefs-1b412d"><g class="clips"/><clipPath id="legend1b412d"><rect width="176" height="86" x="0" y="0"/></clipPath></defs><g class="layer-above"><g class="imagelayer"/><g class="shapelayer"><g class="shape-group" data-index="0" clip-path="url(#clip1b412dy)"><path data-index="0" fill-rule="evenodd" d="M60,30L309,30" style="opacity: 0.3; stroke: rgb(0, 0, 0); stroke-opacity: 0; fill: rgb(0, 0, 0); fill-opacity: 1; stroke-width: 0px;"/></g></g></g><g class="infolayer"><g class="legend" pointer-events="all" transform="translate(313.98,30)"><rect class="bg" shape-rendering="crispEdges" width="176" height="86" x="0" y="0" style="stroke: rgb(68, 68, 68); stroke-opacity: 1; fill: rgb(255, 255, 255); fill-opacity: 1; stroke-width: 0px;"/><g class="scrollbox" transform="" clip-path="url(#legend1b412d)"><text class="legendtitletext" text-anchor="start" x="2" y="18.2" style="font-family: 'Open Sans', verdana, arial, sans-serif; font-size: 14px; fill: rgb(36, 36, 36); fill-opacity: 1; white-space: pre;">algorithm</text><g class="groups" transform=""><g class="traces" transform="translate(0,32.7)" style="opacity: 1;"><text class="legendtext" text-anchor="start" x="40" y="4.680000000000001" style="font-family: 'Open Sans', verdana, arial, sans-serif; font-size: 12px; fill: rgb(36, 36, 36); fill-opacity: 1; white-space: pre;">nag_bobyqa</text><g class="layers" style="opacity: 1;"><g class="legendfill"/><g class="legendlines"><path class="js-line" d="M5,0h30" style="fill: none; stroke: rgb(99, 110, 250); stroke-opacity: 1; stroke-width: 2px;"/></g><g class="legendsymbols"><g class="legendpoints"/></g></g><rect class="legendtoggle" x="0" y="-9.5" width="170.84375" height="19" style="fill: rgb(0, 0, 0); fill-opacity: 0;"/></g></g><g class="groups" transform=""><g class="traces" transform="translate(0,51.7)" style="opacity: 1;"><text class="legendtext" text-anchor="start" x="40" y="4.680000000000001" style="font-family: 'Open Sans', verdana, arial, sans-serif; font-size: 12px; fill: rgb(36, 36, 36); fill-opacity: 1; white-space: pre;">tranquilo_default</text><g class="layers" style="opacity: 1;"><g class="legendfill"/><g class="legendlines"><path class="js-line" d="M5,0h30" style="fill: none; stroke: rgb(239, 85, 59); stroke-opacity: 1; stroke-width: 2px;"/></g><g class="legendsymbols"><g class="legendpoints"/></g></g><rect class="legendtoggle" x="0" y="-9.5" width="170.84375" height="19" style="fill: rgb(0, 0, 0); fill-opacity: 0;"/></g></g><g class="groups" transform=""><g class="traces" transform="translate(0,70.7)" style="opacity: 1;"><text class="legendtext" text-anchor="start" x="40" y="4.680000000000001" style="font-family: 'Open Sans', verdana, arial, sans-serif; font-size: 12px; fill: rgb(36, 36, 36); fill-opacity: 1; white-space: pre;">tranquilo_experimental</text><g class="layers" style="opacity: 1;"><g class="legendfill"/><g class="legendlines"><path class="js-line" d="M5,0h30" style="fill: none; stroke: rgb(0, 204, 150); stroke-opacity: 1; stroke-width: 2px;"/></g><g class="legendsymbols"><g class="legendpoints"/></g></g><rect class="legendtoggle" x="0" y="-9.5" width="170.84375" height="19" style="fill: rgb(0, 0, 0); fill-opacity: 0;"/></g></g></g><rect class="scrollbar" rx="20" ry="3" width="0" height="0" x="0" y="0" style="fill: rgb(128, 139, 164); fill-opacity: 1;"/></g><g class="g-gtitle"/><g class="g-xtitle" transform="translate(0,-12.109375)"><text class="xtitle" x="184.5" y="289.90625" text-anchor="middle" style="font-family: 'Open Sans', verdana, arial, sans-serif; font-size: 14px; fill: rgb(36, 36, 36); opacity: 1; font-weight: normal; white-space: pre;"><tspan class="line" dy="0em" x="184.5" y="289.90625">Multiple of Minimal Number of Function Evaluations</tspan><tspan class="line" dy="1.3em" x="184.5" y="289.90625">Needed to Solve the Problem</tspan></text></g><g class="g-ytitle" transform="translate(4.6279296875,0)"><text class="ytitle" transform="rotate(-90,10.371875000000003,126.5)" x="10.371875000000003" y="126.5" text-anchor="middle" style="font-family: 'Open Sans', verdana, arial, sans-serif; font-size: 14px; fill: rgb(36, 36, 36); opacity: 1; font-weight: normal; white-space: pre;">Share of Problems Solved</text></g></g></svg>