<svg class="main-svg" xmlns="http://www.w3.org/2000/svg" xmlns:xlink="http://www.w3.org/1999/xlink" width="500" height="300" style="" viewBox="0 0 500 300"><rect x="0" y="0" width="500" height="300" style="fill: rgb(255, 255, 255); fill-opacity: 1;"/><defs id="defs-f3b50d"><g class="clips"><clipPath id="clipf3b50dxyplot" class="plotclip"><rect width="269" height="193"/></clipPath><clipPath class="axesclip" id="clipf3b50dx"><rect x="60" y="0" width="269" height="300"/></clipPath><clipPath class="axesclip" id="clipf3b50dy"><rect x="0" y="30" width="500" height="193"/></clipPath><clipPath class="axesclip" id="clipf3b50dxy"><rect x="60" y="30" width="269" height="193"/></clipPath></g><g class="gradients"/><g class="patterns"/></defs><g class="bglayer"/><g class="layer-below"><g class="imagelayer"/><g class="shapelayer"/></g><g class="cartesianlayer"><g class="subplot xy"><g class="layer-subplot"><g class="shapelayer"/><g class="imagelayer"/></g><g class="minor-gridlayer"><g class="x"/><g class="y"/></g><g class="gridlayer"><g class="x"/><g class="y"/></g><g class="zerolinelayer"/><path class="xlines-below"/><path class="ylines-below"/><g class="overlines-below"/><g class="xaxislayer-below"/><g class="yaxislayer-below"/><g class="overaxes-below"/><g class="plot" transform="translate(60,30)" clip-path="url(#clipf3b50dxyplot)"><g class="scatterlayer mlayer"><g class="trace scatter trace272eda" style="stroke-miterlimit: 2; opacity: 1;"><g class="fills"/><g class="errorbars"/><g class="lines"><path class="js-line" d="M0,183.35L3.94,183.35L4.09,179.75L6.2,179.75L6.51,176.16L7.09,172.56L7.45,172.56L14.17,172.56L14.22,168.97L14.89,165.37L15.38,165.37L23.86,165.37L24.03,161.78L24.19,161.78L24.34,143.8L25.21,143.8L26.08,140.21L26.45,140.21L26.82,133.02L27.41,133.02L28,129.42L28.42,125.83L29.28,125.83L30.2,122.23L30.27,118.64L30.66,107.85L33.58,107.85L36.91,107.85L36.98,104.26L37.82,104.26L38.65,100.66L38.94,100.66L39.24,97.07L39.48,97.07L39.71,93.47L41.85,93.47L43.99,89.88L44.74,89.88L45.5,86.28L46.74,86.28L47.98,82.69L49.72,82.69L50.92,79.09L57.16,79.09L63.4,75.5L93.01,75.5L93.34,71.9L119.15,71.9L135.94,68.31L269,68.31" style="vector-effect: none; fill: none; stroke: rgb(229, 57, 53); stroke-opacity: 1; stroke-width: 2px; opacity: 1;"/></g><g class="points"/><g class="text"/></g><g class="trace scatter trace685ffd" style="stroke-miterlimit: 2; opacity: 0.38;"><g class="fills"/><g class="errorbars"/><g class="lines"><path class="js-line" d="M0,147.4L0.19,147.4L0.39,143.8L0.57,143.8L0.75,136.61L1.01,136.61L1.16,133.02L1.45,133.02L1.74,129.42L2.51,118.64L2.62,118.64L3.54,118.64L3.79,115.04L4.19,115.04L4.29,111.45L4.92,104.26L5.37,104.26L5.63,104.26L5.9,100.66L7.02,100.66L7.09,97.07L7.89,97.07L7.98,93.47L8.9,93.47L8.91,89.88L9.88,89.88L9.91,86.28L10.98,86.28L11.23,82.69L17.73,82.69L18.68,79.09L36.58,79.09L36.66,75.5L36.98,71.9L37.82,71.9L97.85,71.9L102.36,68.31L269,68.31" style="vector-effect: none; fill: none; stroke: rgb(229, 57, 53); stroke-opacity: 1; stroke-width: 2px; opacity: 1;"/></g><g class="points"/><g class="text"/></g><g class="trace scatter trace5c6e31" style="stroke-miterlimit: 2; opacity: 0.6;"><g class="fills"/><g class="errorbars"/><g class="lines"><path class="js-line" d="M0,172.56L1.99,172.56L2.11,168.97L3.16,168.97L3.29,165.37L4.3,165.37L4.3,161.78L5.37,154.59L5.63,154.59L6.8,154.59L6.95,140.21L8.09,140.21L8.2,133.02L8.54,133.02L8.88,129.42L9.4,129.42L9.85,125.83L10.73,107.85L10.98,107.85L12.72,107.85L13.27,104.26L13.69,104.26L14.11,100.66L14.31,100.66L14.4,97.07L15.51,97.07L15.65,93.47L16.72,93.47L16.78,89.88L18.73,89.88L18.77,86.28L19.51,86.28L20.25,82.69L21.67,82.69L23.1,79.09L23.39,79.09L23.69,75.5L28.31,75.5L28.42,71.9L33.58,71.9L36.51,68.31L87.83,68.31L92.69,64.71L269,64.71" style="vector-effect: none; fill: none; stroke: rgb(229, 57, 53); stroke-opacity: 1; stroke-width: 2px; opacity: 1;"/></g><g class="points"/><g class="text"/></g><g class="trace scatter tracec12540" style="stroke-miterlimit: 2; opacity: 1;"><g class="fills"/><g class="errorbars"/><g class="lines"><path class="js-line" d="M0,111.45L0.77,111.45L0.8,107.85L1.45,104.26L1.74,104.26L2.31,104.26L2.51,100.66L3.54,89.88L3.79,89.88L7.45,89.88L7.81,86.28L8.93,86.28L8.94,82.69L11.7,82.69L12.17,79.09L14.89,79.09L15.38,75.5L16.15,75.5L16.66,71.9L24.19,71.9L24.34,68.31L48.25,68.31L48.52,64.71L64.24,64.71L65.09,61.12L74.03,61.12L82.97,57.52L195.82,57.52L255.69,53.93L269,53.93" style="vector-effect: none; fill: none; stroke: rgb(1, 70, 131); stroke-opacity: 1; stroke-width: 2px; opacity: 1;"/></g><g class="points"/><g class="text"/></g></g></g><g class="overplot"/><path class="xlines-above crisp" d="M59,223.5H329" style="fill: none; stroke-width: 1px; stroke: rgb(36, 36, 36); stroke-opacity: 1;"/><path class="ylines-above crisp" d="M59.5,30V223" style="fill: none; stroke-width: 1px; stroke: rgb(36, 36, 36); stroke-opacity: 1;"/><g class="overlines-above"/><g class="xaxislayer-above"><path class="xtick ticks crisp" d="M0,224v5" transform="translate(153.87,0)" style="stroke: rgb(68, 68, 68); stroke-opacity: 1; stroke-width: 1px;"/><path class="xtick ticks crisp" d="M0,224v5" transform="translate(258.16999999999996,0)" style="stroke: rgb(68, 68, 68); stroke-opacity: 1; stroke-width: 1px;"/><g class="xtick"><text text-anchor="middle" x="0" y="243.4" transform="translate(153.87,0)" style="font-family: 'Open Sans', verdana, arial, sans-serif; font-size: 12px; fill: rgb(36, 36, 36); fill-opacity: 1; white-space: pre; opacity: 1;">10</text></g><g class="xtick"><text text-anchor="middle" x="0" y="243.4" style="font-family: 'Open Sans', verdana, arial, sans-serif; font-size: 12px; fill: rgb(36, 36, 36); fill-opacity: 1; white-space: pre; opacity: 1;" transform="translate(258.16999999999996,0)">20</text></g></g><g class="yaxislayer-above"><path class="ytick ticks crisp" d="M59,0h-5" transform="translate(0,220.54)" style="stroke: rgb(68, 68, 68); stroke-opacity: 1; stroke-width: 1px;"/><path class="ytick ticks crisp" d="M59,0h-5" transform="translate(0,182.43)" style="stroke: rgb(68, 68, 68); stroke-opacity: 1; stroke-width: 1px;"/><path class="ytick ticks crisp" d="M59,0h-5" transform="translate(0,144.32)" style="stroke: rgb(68, 68, 68); stroke-opacity: 1; stroke-width: 1px;"/><path class="ytick ticks crisp" d="M59,0h-5" transform="translate(0,106.22)" style="stroke: rgb(68, 68, 68); stroke-opacity: 1; stroke-width: 1px;"/><path class="ytick ticks crisp" d="M59,0h-5" transform="translate(0,68.11)" style="stroke: rgb(68, 68, 68); stroke-opacity: 1; stroke-width: 1px;"/><path class="ytick ticks crisp" d="M59,0h-5" transform="translate(0,30)" style="stroke: rgb(68, 68, 68); stroke-opacity: 1; stroke-width: 1px;"/><g class="ytick"><text text-anchor="end" x="51.6" y="4.199999999999999" transform="translate(0,220.54)" style="font-family: 'Open Sans', verdana, arial, sans-serif; font-size: 12px; fill: rgb(36, 36, 36); fill-opacity: 1; white-space: pre; opacity: 1;">0</text></g><g class="ytick"><text text-anchor="end" x="51.6" y="4.199999999999999" style="font-family: 'Open Sans', verdana, arial, sans-serif; font-size: 12px; fill: rgb(36, 36, 36); fill-opacity: 1; white-space: pre; opacity: 1;" transform="translate(0,182.43)">0.2</text></g><g class="ytick"><text text-anchor="end" x="51.6" y="4.199999999999999" style="font-family: 'Open Sans', verdana, arial, sans-serif; font-size: 12px; fill: rgb(36, 36, 36); fill-opacity: 1; white-space: pre; opacity: 1;" transform="translate(0,144.32)">0.4</text></g><g class="ytick"><text text-anchor="end" x="51.6" y="4.199999999999999" style="font-family: 'Open Sans', verdana, arial, sans-serif; font-size: 12px; fill: rgb(36, 36, 36); fill-opacity: 1; white-space: pre; opacity: 1;" transform="translate(0,106.22)">0.6</text></g><g class="ytick"><text text-anchor="end" x="51.6" y="4.199999999999999" style="font-family: 'Open Sans', verdana, arial, sans-serif; font-size: 12px; fill: rgb(36, 36, 36); fill-opacity: 1; white-space: pre; opacity: 1;" transform="translate(0,68.11)">0.8</text></g><g class="ytick"><text text-anchor="end" x="51.6" y="4.199999999999999" style="font-family: 'Open Sans', verdana, arial, sans-serif; font-size: 12px; fill: rgb(36, 36, 36); fill-opacity: 1; white-space: pre; opacity: 1;" transform="translate(0,30)">1</text></g></g><g class="overaxes-above"/></g></g><g class="polarlayer"/><g class="smithlayer"/><g class="ternarylayer"/><g class="geolayer"/><g class="funnelarealayer"/><g class="pielayer"/><g class="iciclelayer"/><g class="treemaplayer"/><g class="sunburstlayer"/><g class="glimages"/><defs id="topdefs-f3b50d"><g class="clips"/><clipPath id="legendf3b50d"><rect width="156" height="105" x="0" y="0"/></clipPath></defs><g class="layer-above"><g class="imagelayer"/><g class="shapelayer"><g class="shape-group" data-index="0" clip-path="url(#clipf3b50dy)"><path data-index="0" fill-rule="evenodd" d="M60,30L329,30" style="opacity: 0.3; stroke: rgb(0, 0, 0); stroke-opacity: 0; fill: rgb(0, 0, 0); fill-opacity: 1; stroke-width: 0px;"/></g></g></g><g class="infolayer"><g class="legend" pointer-events="all" transform="translate(334.38,30)"><rect class="bg" shape-rendering="crispEdges" width="156" height="105" x="0" y="0" style="stroke: rgb(68, 68, 68); stroke-opacity: 1; fill: rgb(255, 255, 255); fill-opacity: 1; stroke-width: 0px;"/><g class="scrollbox" transform="" clip-path="url(#legendf3b50d)"><text class="legendtitletext" text-anchor="start" x="2" y="18.2" style="font-family: 'Open Sans', verdana, arial, sans-serif; font-size: 14px; fill: rgb(36, 36, 36); fill-opacity: 1; white-space: pre;">algorithm</text><g class="groups" transform=""><g class="traces" transform="translate(0,32.7)" style="opacity: 1;"><text class="legendtext" text-anchor="start" x="40" y="4.680000000000001" style="font-family: 'Open Sans', verdana, arial, sans-serif; font-size: 12px; fill: rgb(36, 36, 36); fill-opacity: 1; white-space: pre;">dfols_noisy_10</text><g class="layers" style="opacity: 1;"><g class="legendfill"/><g class="legendlines"><path class="js-line" d="M5,0h30" style="fill: none; stroke: rgb(229, 57, 53); stroke-opacity: 1; stroke-width: 2px;"/></g><g class="legendsymbols"><g class="legendpoints"/></g></g><rect class="legendtoggle" x="0" y="-9.5" width="150.203125" height="19" style="fill: rgb(0, 0, 0); fill-opacity: 0;"/></g></g><g class="groups" transform=""><g class="traces" transform="translate(0,51.7)" style="opacity: 1;"><text class="legendtext" text-anchor="start" x="40" y="4.680000000000001" style="font-family: 'Open Sans', verdana, arial, sans-serif; font-size: 12px; fill: rgb(36, 36, 36); fill-opacity: 1; white-space: pre;">dfols_noisy_3</text><g class="layers" style="opacity: 0.38;"><g class="legendfill"/><g class="legendlines"><path class="js-line" d="M5,0h30" style="fill: none; stroke: rgb(229, 57, 53); stroke-opacity: 1; stroke-width: 2px;"/></g><g class="legendsymbols"><g class="legendpoints"/></g></g><rect class="legendtoggle" x="0" y="-9.5" width="150.203125" height="19" style="fill: rgb(0, 0, 0); fill-opacity: 0;"/></g></g><g class="groups" transform=""><g class="traces" transform="translate(0,70.7)" style="opacity: 1;"><text class="legendtext" text-anchor="start" x="40" y="4.680000000000001" style="font-family: 'Open Sans', verdana, arial, sans-serif; font-size: 12px; fill: rgb(36, 36, 36); fill-opacity: 1; white-space: pre;">dfols_noisy_5</text><g class="layers" style="opacity: 0.6;"><g class="legendfill"/><g class="legendlines"><path class="js-line" d="M5,0h30" style="fill: none; stroke: rgb(229, 57, 53); stroke-opacity: 1; stroke-width: 2px;"/></g><g class="legendsymbols"><g class="legendpoints"/></g></g><rect class="legendtoggle" x="0" y="-9.5" width="150.203125" height="19" style="fill: rgb(0, 0, 0); fill-opacity: 0;"/></g></g><g class="groups" transform=""><g class="traces" transform="translate(0,89.7)" style="opacity: 1;"><text class="legendtext" text-anchor="start" x="40" y="4.680000000000001" style="font-family: 'Open Sans', verdana, arial, sans-serif; font-size: 12px; fill: rgb(36, 36, 36); fill-opacity: 1; white-space: pre;">tranquilo_ls_default</text><g class="layers" style="opacity: 1;"><g class="legendfill"/><g class="legendlines"><path class="js-line" d="M5,0h30" style="fill: none; stroke: rgb(1, 70, 131); stroke-opacity: 1; stroke-width: 2px;"/></g><g class="legendsymbols"><g class="legendpoints"/></g></g><rect class="legendtoggle" x="0" y="-9.5" width="150.203125" height="19" style="fill: rgb(0, 0, 0); fill-opacity: 0;"/></g></g></g><rect class="scrollbar" rx="20" ry="3" width="0" height="0" x="0" y="0" style="fill: rgb(128, 139, 164); fill-opacity: 1;"/></g><g class="g-gtitle"/><g class="g-xtitle" transform="translate(0,-12.109375)"><text class="xtitle" x="194.5" y="289.90625" text-anchor="middle" style="font-family: 'Open Sans', verdana, arial, sans-serif; font-size: 14px; fill: rgb(36, 36, 36); opacity: 1; font-weight: normal; white-space: pre;"><tspan class="line" dy="0em" x="194.5" y="289.90625">Multiple of Minimal Number of Function Evaluations</tspan><tspan class="line" dy="1.3em" x="194.5" y="289.90625">Needed to Solve the Problem</tspan></text></g><g class="g-ytitle" transform="translate(4.6279296875,0)"><text class="ytitle" transform="rotate(-90,10.371875000000003,126.5)" x="10.371875000000003" y="126.5" text-anchor="middle" style="font-family: 'Open Sans', verdana, arial, sans-serif; font-size: 14px; fill: rgb(36, 36, 36); opacity: 1; font-weight: normal; white-space: pre;">Share of Problems Solved</text></g></g></svg>