<svg class="main-svg" xmlns="http://www.w3.org/2000/svg" xmlns:xlink="http://www.w3.org/1999/xlink" width="500" height="300" style="" viewBox="0 0 500 300"><rect x="0" y="0" width="500" height="300" style="fill: rgb(255, 255, 255); fill-opacity: 1;"/><defs id="defs-5f10b1"><g class="clips"><clipPath id="clip5f10b1xyplot" class="plotclip"><rect width="255" height="193"/></clipPath><clipPath class="axesclip" id="clip5f10b1x"><rect x="60" y="0" width="255" height="300"/></clipPath><clipPath class="axesclip" id="clip5f10b1y"><rect x="0" y="30" width="500" height="193"/></clipPath><clipPath class="axesclip" id="clip5f10b1xy"><rect x="60" y="30" width="255" height="193"/></clipPath></g><g class="gradients"/><g class="patterns"/></defs><g class="bglayer"/><g class="layer-below"><g class="imagelayer"/><g class="shapelayer"/></g><g class="cartesianlayer"><g class="subplot xy"><g class="layer-subplot"><g class="shapelayer"/><g class="imagelayer"/></g><g class="minor-gridlayer"><g class="x"/><g class="y"/></g><g class="gridlayer"><g class="x"/><g class="y"/></g><g class="zerolinelayer"/><path class="xlines-below"/><path class="ylines-below"/><g class="overlines-below"/><g class="xaxislayer-below"/><g class="yaxislayer-below"/><g class="overaxes-below"/><g class="plot" transform="translate(60,30)" clip-path="url(#clip5f10b1xyplot)"><g class="scatterlayer mlayer"><g class="trace scatter trace5b57ce" style="stroke-miterlimit: 2; opacity: 1;"><g class="fills"/><g class="errorbars"/><g class="lines"><path class="js-line" d="M0,183.35L4.24,183.35L4.46,179.81L7.47,179.81L8.92,172.72L9.55,172.72L10.04,169.17L11.05,165.63L11.15,165.63L11.31,165.63L11.47,158.54L23.13,158.54L23.32,154.99L26.16,154.99L26.77,151.45L29.03,151.45L30.12,147.9L36.48,147.9L36.81,144.36L38.2,144.36L38.41,140.81L39.28,140.81L40.16,123.09L43.66,123.09L43.81,119.54L45.73,119.54L46.85,112.45L47.05,112.45L47.24,108.91L49.64,108.91L50.2,105.36L53.03,105.36L53.54,94.73L58.23,94.73L60.24,84.09L61.01,84.09L61.78,80.55L62.32,80.55L62.86,77L63.68,73.46L64.25,69.91L65.59,69.91L66.93,66.37L67.35,66.37L67.77,62.82L68.02,62.82L68.27,59.28L77.64,59.28L80.31,55.73L83.66,55.73L87.01,52.19L88.68,52.19L90.35,48.64L92.03,48.64L93.7,45.1L98.39,45.1L100.39,41.55L103.84,41.55L104.41,38.01L105.75,38.01L107.09,30.92L108.76,30.92L110.43,27.37L115.45,27.37L120.47,20.28L127.17,20.28L133.86,16.74L136.54,16.74L139.21,13.19L202.46,13.19L240.94,9.65L255,9.65" style="vector-effect: none; fill: none; stroke: rgb(229, 57, 53); stroke-opacity: 1; stroke-width: 2px; opacity: 1;"/></g><g class="points"/><g class="text"/></g><g class="trace scatter trace95680b" style="stroke-miterlimit: 2; opacity: 0.38;"><g class="fills"/><g class="errorbars"/><g class="lines"><path class="js-line" d="M0,176.26L3.22,176.26L3.35,172.72L4.24,172.72L4.46,169.17L5.69,169.17L6.02,165.63L7.47,165.63L8.92,162.08L11.93,162.08L12.05,158.54L16.98,158.54L18.9,154.99L19.54,154.99L20.08,151.45L20.52,151.45L20.95,147.9L22.63,147.9L22.95,144.36L24.82,144.36L25.55,140.81L26.16,140.81L26.77,126.63L29.03,126.63L30.12,123.09L30.68,123.09L31.23,119.54L32.35,119.54L33.46,112.45L34.19,112.45L34.92,108.91L35.92,101.82L36.14,101.82L36.94,101.82L37.07,98.27L37.53,98.27L38,94.73L39.28,94.73L40.16,55.73L48.16,55.73L49.08,52.19L49.64,52.19L50.2,45.1L51.36,45.1L52.51,41.55L53.03,41.55L53.54,38.01L54.88,38.01L56.22,34.46L58.23,34.46L60.24,30.92L74.77,30.92L74.96,27.37L77.64,27.37L80.31,16.74L95.04,16.74L96.38,13.19L101.83,13.19L103.26,9.65L255,9.65" style="vector-effect: none; fill: none; stroke: rgb(1, 70, 131); stroke-opacity: 1; stroke-width: 2px; opacity: 1;"/></g><g class="points"/><g class="text"/></g><g class="trace scatter trace0f819a" style="stroke-miterlimit: 2; opacity: 0.6;"><g class="fills"/><g class="errorbars"/><g class="lines"><path class="js-line" d="M0,133.72L2.12,133.72L2.23,130.18L3.68,130.18L4.02,126.63L4.91,126.63L5.35,123.09L9,123.09L9.07,119.54L9.55,119.54L10.04,101.82L11.05,101.82L11.15,98.27L11.64,98.27L11.81,94.73L12.72,94.73L13.39,62.82L19.54,62.82L20.08,48.64L21.63,48.64L22.31,45.1L23.71,45.1L24.09,41.55L27.35,41.55L27.94,38.01L35.92,38.01L36.14,34.46L39.28,34.46L40.16,27.37L41.5,27.37L42.83,23.83L44.21,23.83L44.62,20.28L58.23,20.28L60.24,16.74L68.55,16.74L68.84,13.19L71.71,13.19L74.58,9.65L255,9.65" style="vector-effect: none; fill: none; stroke: rgb(1, 70, 131); stroke-opacity: 1; stroke-width: 2px; opacity: 1;"/></g><g class="points"/><g class="text"/></g><g class="trace scatter trace179b90" style="stroke-miterlimit: 2; opacity: 1;"><g class="fills"/><g class="errorbars"/><g class="lines"><path class="js-line" d="M0,62.82L0.44,62.82L0.87,59.28L1.44,59.28L2.01,55.73L2.66,55.73L3.09,52.19L4.24,52.19L4.46,45.1L9.55,45.1L10.04,41.55L10.63,41.55L10.95,38.01L14.22,38.01L15.06,34.46L18.95,34.46L18.99,30.92L29.03,30.92L30.12,27.37L35.42,27.37L35.7,23.83L35.92,23.83L36.14,20.28L39.28,20.28L40.16,16.74L43.17,16.74L43.5,13.19L151.59,13.19L163.98,9.65L255,9.65" style="vector-effect: none; fill: none; stroke: rgb(1, 70, 131); stroke-opacity: 1; stroke-width: 2px; opacity: 1;"/></g><g class="points"/><g class="text"/></g></g></g><g class="overplot"/><path class="xlines-above crisp" d="M59,223.5H315" style="fill: none; stroke-width: 1px; stroke: rgb(36, 36, 36); stroke-opacity: 1;"/><path class="ylines-above crisp" d="M59.5,30V223" style="fill: none; stroke-width: 1px; stroke: rgb(36, 36, 36); stroke-opacity: 1;"/><g class="overlines-above"/><g class="xaxislayer-above"><path class="xtick ticks crisp" d="M0,224v5" transform="translate(100.16,0)" style="stroke: rgb(68, 68, 68); stroke-opacity: 1; stroke-width: 1px;"/><path class="xtick ticks crisp" d="M0,224v5" transform="translate(180.47,0)" style="stroke: rgb(68, 68, 68); stroke-opacity: 1; stroke-width: 1px;"/><path class="xtick ticks crisp" d="M0,224v5" transform="translate(260.78999999999996,0)" style="stroke: rgb(68, 68, 68); stroke-opacity: 1; stroke-width: 1px;"/><g class="xtick"><text text-anchor="middle" x="0" y="243.4" transform="translate(100.16,0)" style="font-family: 'Open Sans', verdana, arial, sans-serif; font-size: 12px; fill: rgb(36, 36, 36); fill-opacity: 1; white-space: pre; opacity: 1;">2</text></g><g class="xtick"><text text-anchor="middle" x="0" y="243.4" style="font-family: 'Open Sans', verdana, arial, sans-serif; font-size: 12px; fill: rgb(36, 36, 36); fill-opacity: 1; white-space: pre; opacity: 1;" transform="translate(180.47,0)">4</text></g><g class="xtick"><text text-anchor="middle" x="0" y="243.4" style="font-family: 'Open Sans', verdana, arial, sans-serif; font-size: 12px; fill: rgb(36, 36, 36); fill-opacity: 1; white-space: pre; opacity: 1;" transform="translate(260.78999999999996,0)">6</text></g></g><g class="yaxislayer-above"><path class="ytick ticks crisp" d="M59,0h-5" transform="translate(0,220.44)" style="stroke: rgb(68, 68, 68); stroke-opacity: 1; stroke-width: 1px;"/><path class="ytick ticks crisp" d="M59,0h-5" transform="translate(0,182.86)" style="stroke: rgb(68, 68, 68); stroke-opacity: 1; stroke-width: 1px;"/><path class="ytick ticks crisp" d="M59,0h-5" transform="translate(0,145.29000000000002)" style="stroke: rgb(68, 68, 68); stroke-opacity: 1; stroke-width: 1px;"/><path class="ytick ticks crisp" d="M59,0h-5" transform="translate(0,107.71)" style="stroke: rgb(68, 68, 68); stroke-opacity: 1; stroke-width: 1px;"/><path class="ytick ticks crisp" d="M59,0h-5" transform="translate(0,70.14)" style="stroke: rgb(68, 68, 68); stroke-opacity: 1; stroke-width: 1px;"/><path class="ytick ticks crisp" d="M59,0h-5" transform="translate(0,32.56)" style="stroke: rgb(68, 68, 68); stroke-opacity: 1; stroke-width: 1px;"/><g class="ytick"><text text-anchor="end" x="51.6" y="4.199999999999999" transform="translate(0,220.44)" style="font-family: 'Open Sans', verdana, arial, sans-serif; font-size: 12px; fill: rgb(36, 36, 36); fill-opacity: 1; white-space: pre; opacity: 1;">0</text></g><g class="ytick"><text text-anchor="end" x="51.6" y="4.199999999999999" style="font-family: 'Open Sans', verdana, arial, sans-serif; font-size: 12px; fill: rgb(36, 36, 36); fill-opacity: 1; white-space: pre; opacity: 1;" transform="translate(0,182.86)">0.2</text></g><g class="ytick"><text text-anchor="end" x="51.6" y="4.199999999999999" style="font-family: 'Open Sans', verdana, arial, sans-serif; font-size: 12px; fill: rgb(36, 36, 36); fill-opacity: 1; white-space: pre; opacity: 1;" transform="translate(0,145.29000000000002)">0.4</text></g><g class="ytick"><text text-anchor="end" x="51.6" y="4.199999999999999" style="font-family: 'Open Sans', verdana, arial, sans-serif; font-size: 12px; fill: rgb(36, 36, 36); fill-opacity: 1; white-space: pre; opacity: 1;" transform="translate(0,107.71)">0.6</text></g><g class="ytick"><text text-anchor="end" x="51.6" y="4.199999999999999" style="font-family: 'Open Sans', verdana, arial, sans-serif; font-size: 12px; fill: rgb(36, 36, 36); fill-opacity: 1; white-space: pre; opacity: 1;" transform="translate(0,70.14)">0.8</text></g><g class="ytick"><text text-anchor="end" x="51.6" y="4.199999999999999" style="font-family: 'Open Sans', verdana, arial, sans-serif; font-size: 12px; fill: rgb(36, 36, 36); fill-opacity: 1; white-space: pre; opacity: 1;" transform="translate(0,32.56)">1</text></g></g><g class="overaxes-above"/></g></g><g class="polarlayer"/><g class="smithlayer"/><g class="ternarylayer"/><g class="geolayer"/><g class="funnelarealayer"/><g class="pielayer"/><g class="iciclelayer"/><g class="treemaplayer"/><g class="sunburstlayer"/><g class="glimages"/><defs id="topdefs-5f10b1"><g class="clips"/><clipPath id="legend5f10b1"><rect width="170" height="105" x="0" y="0"/></clipPath></defs><g class="layer-above"><g class="imagelayer"/><g class="shapelayer"><g class="shape-group" data-index="0" clip-path="url(#clip5f10b1y)"><path data-index="0" fill-rule="evenodd" d="M60,32.56L315,32.56" style="opacity: 0.3; stroke: rgb(0, 0, 0); stroke-opacity: 0; fill: rgb(0, 0, 0); fill-opacity: 1; stroke-width: 0px;"/></g></g></g><g class="infolayer"><g class="legend" pointer-events="all" transform="translate(320.1,30)"><rect class="bg" shape-rendering="crispEdges" style="stroke: rgb(68, 68, 68); stroke-opacity: 1; fill: rgb(255, 255, 255); fill-opacity: 1; stroke-width: 0px;" width="170" height="105" x="0" y="0"/><g class="scrollbox" transform="" clip-path="url(#legend5f10b1)"><text class="legendtitletext" text-anchor="start" x="2" y="18.2" style="font-family: 'Open Sans', verdana, arial, sans-serif; font-size: 14px; fill: rgb(36, 36, 36); fill-opacity: 1; white-space: pre;">algorithm</text><g class="groups" transform=""><g class="traces" transform="translate(0,32.7)" style="opacity: 1;"><text class="legendtext" text-anchor="start" x="40" y="4.680000000000001" style="font-family: 'Open Sans', verdana, arial, sans-serif; font-size: 12px; fill: rgb(36, 36, 36); fill-opacity: 1; white-space: pre;">dfols</text><g class="layers" style="opacity: 1;"><g class="legendfill"/><g class="legendlines"><path class="js-line" d="M5,0h30" style="fill: none; stroke: rgb(229, 57, 53); stroke-opacity: 1; stroke-width: 2px;"/></g><g class="legendsymbols"><g class="legendpoints"/></g></g><rect class="legendtoggle" x="0" y="-9.5" width="164.546875" height="19" style="fill: rgb(0, 0, 0); fill-opacity: 0;"/></g></g><g class="groups" transform=""><g class="traces" transform="translate(0,51.7)" style="opacity: 1;"><text class="legendtext" text-anchor="start" x="40" y="4.680000000000001" style="font-family: 'Open Sans', verdana, arial, sans-serif; font-size: 12px; fill: rgb(36, 36, 36); fill-opacity: 1; white-space: pre;">tranquilo_ls_parallel_2</text><g class="layers" style="opacity: 0.38;"><g class="legendfill"/><g class="legendlines"><path class="js-line" d="M5,0h30" style="fill: none; stroke: rgb(1, 70, 131); stroke-opacity: 1; stroke-width: 2px;"/></g><g class="legendsymbols"><g class="legendpoints"/></g></g><rect class="legendtoggle" x="0" y="-9.5" width="164.546875" height="19" style="fill: rgb(0, 0, 0); fill-opacity: 0;"/></g></g><g class="groups" transform=""><g class="traces" transform="translate(0,70.7)" style="opacity: 1;"><text class="legendtext" text-anchor="start" x="40" y="4.680000000000001" style="font-family: 'Open Sans', verdana, arial, sans-serif; font-size: 12px; fill: rgb(36, 36, 36); fill-opacity: 1; white-space: pre;">tranquilo_ls_parallel_4</text><g class="layers" style="opacity: 0.6;"><g class="legendfill"/><g class="legendlines"><path class="js-line" d="M5,0h30" style="fill: none; stroke: rgb(1, 70, 131); stroke-opacity: 1; stroke-width: 2px;"/></g><g class="legendsymbols"><g class="legendpoints"/></g></g><rect class="legendtoggle" x="0" y="-9.5" width="164.546875" height="19" style="fill: rgb(0, 0, 0); fill-opacity: 0;"/></g></g><g class="groups" transform=""><g class="traces" transform="translate(0,89.7)" style="opacity: 1;"><text class="legendtext" text-anchor="start" x="40" y="4.680000000000001" style="font-family: 'Open Sans', verdana, arial, sans-serif; font-size: 12px; fill: rgb(36, 36, 36); fill-opacity: 1; white-space: pre;">tranquilo_ls_parallel_8</text><g class="layers" style="opacity: 1;"><g class="legendfill"/><g class="legendlines"><path class="js-line" d="M5,0h30" style="fill: none; stroke: rgb(1, 70, 131); stroke-opacity: 1; stroke-width: 2px;"/></g><g class="legendsymbols"><g class="legendpoints"/></g></g><rect class="legendtoggle" x="0" y="-9.5" width="164.546875" height="19" style="fill: rgb(0, 0, 0); fill-opacity: 0;"/></g></g></g><rect class="scrollbar" rx="20" ry="3" width="0" height="0" style="fill: rgb(128, 139, 164); fill-opacity: 1;" x="0" y="0"/></g><g class="g-gtitle"/><g class="g-xtitle" transform="translate(0,-12.109375)"><text class="xtitle" x="187.5" y="289.90625" text-anchor="middle" style="font-family: 'Open Sans', verdana, arial, sans-serif; font-size: 14px; fill: rgb(36, 36, 36); opacity: 1; font-weight: normal; white-space: pre;"><tspan class="line" dy="0em" x="187.5" y="289.90625">Multiple of Minimal Number of Batches</tspan><tspan class="line" dy="1.3em" x="187.5" y="289.90625">Needed to Solve the Problem</tspan></text></g><g class="g-ytitle" transform="translate(4.6279296875,0)"><text class="ytitle" transform="rotate(-90,10.371875000000003,126.5)" x="10.371875000000003" y="126.5" text-anchor="middle" style="font-family: 'Open Sans', verdana, arial, sans-serif; font-size: 14px; fill: rgb(36, 36, 36); opacity: 1; font-weight: normal; white-space: pre;">Share of Problems Solved</text></g></g></svg>